<?xml version="1.0" standalone="no"?> <!DOCTYPE svg PUBLIC "-//W3C//DTD SVG 1.0//EN" "http://www.w3.org/TR/2001/REC-SVG-20010904/DTD/svg10.dtd" > <svg xmlns="http://www.w3.org/2000/svg" width="100%" height="100%">
<defs >
<font id="memphisltstdextrabold" horiz-adv-x="1305" ><font-face
    font-family="Memphis LT Std ExtraBold"
    units-per-em="2048"
    panose-1="2 6 9 4 2 2 5 2 4 4"
    ascent="1479"
    descent="-569"
    alphabetic="0" />
<missing-glyph horiz-adv-x="1024" d="M0 0V1434H1024V0H0ZM512 809L860 1331H164L512 809ZM573 717L922 195V1239L573 717ZM164 102H860L512 625L164 102ZM102 1239V195L451 717L102 1239Z" />
<glyph unicode=" " glyph-name="space" horiz-adv-x="681" />
<glyph unicode="!" glyph-name="exclam" horiz-adv-x="796" d="M180 1479H606Q604 1429 596 1248T585 985T577 765T571 512H215Q211 800 180 1479ZM397 410Q488 410 553 344T618 186T553 31T397 -33Q305 -33 241 30T176 186Q176 279 240 344T397 410Z" />
<glyph unicode="&quot;" glyph-name="quotedbl" horiz-adv-x="681" d="M262 1346L221 928Q219 909 203 887T158 864T113 886T94 928L53 1346Q49 1365 51 1393T60 1447T91 1492T158 1511T224 1493T255 1448T263 1393T262 1346ZM629 1346L588 928Q586 909 569 887T524
864T480 886T461 928L420 1346Q416 1365 418 1393T427 1447T458 1492T524 1511T590 1493T622 1448T630 1393T629 1346Z" />
<glyph unicode="#" glyph-name="numbersign" horiz-adv-x="1366" d="M1143 616L1135 416H952L895 0H684L741 416H549L492 0H281L338 416H158L166 616H367L401 862H221L229 1063H428L485 1479H696L639 1063H831L889 1479H1100L1042 1063H1206L1196 862H1016L981
616H1143ZM805 862H612L578 616H770L805 862Z" />
<glyph unicode="$" glyph-name="dollar" horiz-adv-x="1366" d="M567 934V1208Q381 1208 381 1073Q381 1044 394 1021T426 984T473 959T521 944T567 934ZM731 557V252Q766 250 800 256T869 276T925 320T946 393Q946 428 932 456T897 500T844 528T788 546T731 557ZM567
1442V1602H731V1436Q836 1420 946 1354V1421H1186V1036H944Q912 1098 854 1141T731 1196V913Q937 872 1025 835Q1186 768 1238 629Q1268 550 1268 442Q1268 322 1225 232T1106 89T937 10T731 -18V-209H567V-8Q442 12 340 100V6H94V440H356Q386 376 444 328T567
262V582Q380 625 299 662Q127 742 94 905Q86 947 86 995Q86 1083 110 1156T178 1281T282 1369T414 1423T567 1442Z" />
<glyph unicode="%" glyph-name="percent" horiz-adv-x="2048" d="M1575 -33Q1400 -33 1279 88T1157 385T1278 685T1575 811Q1748 811 1869 685T1991 385Q1991 213 1869 90T1575 -33ZM1575 248Q1629 248 1669 289T1710 385Q1710 444 1672 487T1575 530Q1515 530
1477 488T1438 385Q1438 326 1477 287T1575 248ZM477 635Q303 635 181 755T59 1051Q59 1227 180 1353T477 1479Q651 1479 772 1353T893 1051Q893 880 771 758T477 635ZM477 915Q531 915 571 957T612 1053Q612 1111 574 1154T477 1198Q417 1198 379 1156T340 1053Q340
994 379 955T477 915ZM506 -37L1370 1491H1567L705 -37H506Z" />
<glyph unicode="&amp;" glyph-name="ampersand" horiz-adv-x="1933" d="M561 1147Q561 1093 606 1038T705 983Q756 983 797 1041T838 1153Q838 1210 802 1243T707 1276Q641 1276 601 1244T561 1147ZM1249 0L1147 94Q944 -33 676 -33Q405 -33 261 86T117 414Q117
559 195 655T416 815Q348 871 300 955T252 1118Q252 1193 278 1254T348 1357T451 1426T576 1466T711 1479Q796 1479 871 1460T1008 1401T1108 1293T1145 1137Q1145 1038 1097 955T963 819L1241 532Q1343 610 1376 709H1245V999H1817V709H1686Q1608 492 1436 332L1489
279H1749V0H1249ZM905 330L635 598Q580 574 547 521T514 408Q514 336 573 285T705 233Q827 233 905 330Z" />
<glyph unicode="&apos;" glyph-name="quotesingle" horiz-adv-x="454" d="M332 1346L291 928Q289 909 272 887T227 864T183 886T164 928L123 1346Q119 1365 121 1393T130 1447T161 1492T227 1511T293 1493T325 1448T333 1393T332 1346Z" />
<glyph unicode="(" glyph-name="parenleft" horiz-adv-x="796" d="M346 1479H707Q593 1238 538 1024T483 565Q483 75 711 -319H350Q234 -125 173 105T111 567Q111 997 346 1479Z" />
<glyph unicode=")" glyph-name="parenright" horiz-adv-x="796" d="M446 -319H86Q199 -124 256 103T313 565Q313 806 259 1015T92 1479H451Q686 1004 686 567Q686 334 625 106T446 -319Z" />
<glyph unicode="*" glyph-name="asterisk" horiz-adv-x="1251" d="M233 1296L541 1137L500 1479H756L700 1137L1026 1290L1100 1038L760 987L1008 741L801 586L623 897L455 586L248 733L481 987L152 1057L233 1296Z" />
<glyph unicode="+" glyph-name="plus" horiz-adv-x="1228" d="M492 639V1032H737V639H1130V393H737V0H492V393H98V639H492Z" />
<glyph unicode="," glyph-name="comma" horiz-adv-x="681" d="M592 381L434 -174H66L229 381H592Z" />
<glyph unicode="-" glyph-name="hyphen" horiz-adv-x="681" d="M618 299H63V702H618V299Z" />
<glyph unicode="." glyph-name="period" horiz-adv-x="681" d="M340 410Q431 410 496 344T561 186T496 31T340 -33Q248 -33 184 30T119 186Q119 279 183 344T340 410Z" />
<glyph unicode="/" glyph-name="slash" horiz-adv-x="569" d="M600 1479L201 -33H16L412 1479H600Z" />
<glyph unicode="0" glyph-name="zero" horiz-adv-x="1366" d="M508 993V453Q508 377 555 341T682 305T808 341T856 453V993Q856 1069 809 1105T682 1141T556 1105T508 993ZM98 422V1024Q98 1479 682 1479T1266 1024V422Q1266 -33 682 -33T98 422Z" />
<glyph unicode="1" glyph-name="one" horiz-adv-x="1366" d="M322 1147V1446H897V299H1053V0H322V299H487V1147H322Z" />
<glyph unicode="2" glyph-name="two" horiz-adv-x="1366" d="M1237 0H76V287L705 831Q817 933 817 1032Q817 1169 641 1169Q562 1169 515 1131T467 1028V965H86V1077Q86 1165 120 1235T211 1350T344 1424T498 1466T659 1479Q748 1479 827 1466T982 1420T1111 1340T1198
1215T1231 1044Q1231 962 1208 891T1139 757T1044 647T924 541L637 307V299H948V389H1237V0Z" />
<glyph unicode="3" glyph-name="three" horiz-adv-x="1366" d="M84 487H461Q461 400 514 350Q560 307 653 307Q723 307 777 350T831 463Q831 614 590 614H522V872H592Q724 872 776 906T829 1022Q829 1072 799 1105T730 1151T651 1163Q565 1163 509 1119T453 999H109V1069Q109
1158 141 1229T226 1346T353 1422T508 1466T680 1479Q756 1479 829 1466T973 1423T1097 1348T1184 1235T1217 1083Q1217 977 1155 892T991 770Q1113 725 1179 635T1245 418Q1245 323 1211 246T1120 117T987 32T828 -18T659 -33Q531 -33 428 -2T247 91T128 254T84
487Z" />
<glyph unicode="4" glyph-name="four" horiz-adv-x="1366" d="M688 592V1085H680L369 592H688ZM1098 1446V592H1247V360H1098V215H1247V0H522V215H688V360H80V633L602 1446H1098Z" />
<glyph unicode="5" glyph-name="five" horiz-adv-x="1366" d="M1139 1446V1114H479V932Q582 971 764 971Q1095 971 1183 784Q1222 702 1223 542Q1223 531 1223 514Q1223 432 1219 373T1201 253T1164 151T1101 72T1007 14T874 -20T698 -33Q593 -33 507 -19T348
25T227 103T150 218T123 373V465H510Q510 371 541 336Q572 295 662 295Q761 295 794 339T827 485Q827 589 785 625T621 662H166V1446H1139Z" />
<glyph unicode="6" glyph-name="six" horiz-adv-x="1366" d="M690 696Q644 696 610 684T556 651T524 599T508 534T504 457Q504 365 552 316T688 266Q744 266 780 280T833 327T856 394T862 487Q862 590 824 643T690 696ZM1237 1092H840Q832 1141 782 1165Q747 1184
688 1184Q627 1184 590 1171T533 1126T508 1058T502 958V866Q645 950 829 950Q860 950 887 949T960 940T1042 920T1120 882T1188 822T1234 733T1253 612V358Q1253 261 1217 189T1125 76T988 9T832 -25T666 -33Q545 -33 448 -8T272 71T152 217T109 436V1004Q109
1255 258 1367T698 1479Q776 1479 849 1468T993 1428T1118 1356T1204 1245T1237 1092Z" />
<glyph unicode="7" glyph-name="seven" horiz-adv-x="1366" d="M408 940H104V1446H1266V1130L707 0H246L797 1114H408V940Z" />
<glyph unicode="8" glyph-name="eight" horiz-adv-x="1366" d="M498 430Q498 355 553 307T686 258Q757 258 812 308T868 430Q868 504 813 556T686 608Q609 608 554 558T498 430ZM508 1042Q508 969 560 922T688 874Q759 874 813 922T868 1042Q868 1110 812 1155T688
1200Q616 1200 562 1156T508 1042ZM379 791V793Q259 842 198 917T137 1114Q137 1198 170 1263T256 1368T385 1434T536 1469T700 1479Q774 1479 845 1469T989 1432T1116 1365T1205 1260T1239 1114Q1239 1003 1168 916T987 791V786Q1125 741 1201 644T1278 401Q1278
311 1243 237T1151 113T1017 30T860 -18T698 -33Q602 -33 518 -20T353 26T215 110T123 243T88 430Q88 558 171 656T379 791Z" />
<glyph unicode="9" glyph-name="nine" horiz-adv-x="1366" d="M672 750Q729 750 767 767T824 819T850 894T858 989Q858 1081 810 1130T674 1180Q618 1180 582 1166T529 1119T506 1051T500 958Q500 855 538 803T672 750ZM125 354H522Q530 305 580 281Q615 262 674
262Q735 262 772 275T829 320T854 388T860 487V580Q717 496 532 496Q501 496 474 497T402 506T320 526T242 564T174 624T128 713T109 834V1087Q109 1184 145 1256T237 1370T374 1437T530 1471T696 1479Q817 1479 914 1454T1090 1375T1210 1229T1253 1010V442Q1253
191 1104 79T664 -33Q586 -33 513 -22T369 18T244 90T158 201T125 354Z" />
<glyph unicode=":" glyph-name="colon" horiz-adv-x="681" d="M340 410Q431 410 496 344T561 186T496 31T340 -33Q248 -33 184 30T119 186Q119 279 183 344T340 410ZM340 1032Q431 1032 496 967T561 809T496 654T340 590Q248 590 184 653T119 809T183 966T340 1032Z" />
<glyph unicode=";" glyph-name="semicolon" horiz-adv-x="681" d="M586 381L428 -174H59L223 381H586ZM426 1032Q517 1032 582 967T647 809T582 654T426 590Q334 590 270 653T205 809T269 966T426 1032Z" />
<glyph unicode="&lt;" glyph-name="less" horiz-adv-x="1228" d="M1135 217V-18L94 420V612L1135 1051V815L414 516L1135 217Z" />
<glyph unicode="=" glyph-name="equal" horiz-adv-x="1228" d="M1130 858V612H98V858H1130ZM1130 420V174H98V420H1130Z" />
<glyph unicode="&gt;" glyph-name="greater" horiz-adv-x="1228" d="M94 217L815 516L94 815V1051L1135 612V420L94 -18V217Z" />
<glyph unicode="?" glyph-name="question" horiz-adv-x="1251" d="M477 1044H86Q84 1158 125 1248T240 1395T408 1481T614 1511Q723 1511 819 1485T993 1405T1116 1264T1161 1063Q1161 885 1065 771T793 633V545H418V885H496Q639 885 700 934T762 1063Q762 1124
719 1166T616 1208Q546 1208 509 1162T477 1044ZM612 410Q703 410 768 344T834 186T769 31T612 -33Q520 -33 456 30T391 186Q391 279 455 344T612 410Z" />
<glyph unicode="@" glyph-name="at" horiz-adv-x="1638" d="M954 1010Q919 1010 877 981T799 905T738 788T713 645Q713 564 740 513T801 461Q887 461 952 561T1038 866Q1038 942 1021 976T954 1010ZM1112 1114H1284L1163 616Q1162 610 1158 593T1151 560T1149
522Q1149 481 1168 455T1212 428Q1257 428 1304 486T1384 643T1417 850Q1417 942 1378 1030T1268 1187T1091 1298T860 1341Q788 1341 716 1321T571 1252T441 1130T350 941T315 682Q315 566 365 463T495 289T676 178T881 137Q1021 137 1120 163T1325 244L1346 109Q1101
-33 883 -33Q742 -33 619 0T405 91T245 222T131 379T65 545T43 705Q43 882 108 1034T285 1290T546 1452T860 1511Q1065 1511 1233 1426T1498 1190T1595 852Q1595 783 1578 710T1526 566T1442 441T1325 353T1180 319Q1128 319 1086 339T1021 387T988 440T977 481H973Q956
441 880 383T717 322Q682 321 646 335T577 378T523 464T502 594Q502 656 518 727T571 874T657 1010T781 1110T942 1149Q967 1149 987 1144T1020 1134T1045 1114T1062 1094T1078 1068T1092 1042L1112 1114Z" />
<glyph unicode="A" glyph-name="A" horiz-adv-x="1820" d="M772 0H61V303H166L469 1176H336V1479H1493V1176H1360L1653 303H1757V0H1018V303H1180L1114 492H674L608 303H772V0ZM760 735H1034L901 1163H897L760 735Z" />
<glyph unicode="B" glyph-name="B" horiz-adv-x="1705" d="M684 647V303H924Q1044 303 1097 343T1151 479Q1151 564 1090 605T930 647H684ZM684 1176V893H885Q988 893 1043 930T1098 1040Q1098 1068 1090 1090T1069 1126T1035 1150T995 1165T946 1172T896 1175T844
1176H684ZM90 1176V1479H1040Q1083 1479 1116 1478T1205 1468T1302 1447T1391 1405T1468 1339T1519 1242T1540 1108Q1540 973 1466 890T1257 780V776Q1418 757 1505 669T1593 418Q1593 316 1567 243T1491 123T1361 49T1184 11T954 0H94V303H242V1176H90Z" />
<glyph unicode="C" glyph-name="C" horiz-adv-x="1593" d="M1505 913H1110Q1088 1013 1006 1063Q937 1106 827 1106Q696 1106 612 1005T528 756Q528 662 556 589T631 473T732 411T842 393Q1024 400 1090 547H1546Q1533 436 1486 341T1367 178T1205 62T1010 -9T797
-33Q626 -33 488 28T260 196T122 446T74 758Q74 970 154 1139T393 1409T768 1511Q870 1511 964 1478T1112 1374H1116V1479H1505V913Z" />
<glyph unicode="D" glyph-name="D" horiz-adv-x="1820" d="M92 0V303H238V1176H92V1479H934Q1737 1479 1737 750Q1737 576 1688 441T1537 205T1267 53T870 0H92ZM680 1176V303H834Q1047 303 1164 414T1282 739Q1282 954 1165 1065T834 1176H680Z" />
<glyph unicode="E" glyph-name="E" horiz-adv-x="1593" d="M1485 0H90V303H231V1176H90V1479H1485V915H1186L1120 1176H674V905H958V573H674V303H1120L1186 586H1485V0Z" />
<glyph unicode="F" glyph-name="F" horiz-adv-x="1593" d="M909 0H90V303H242V1176H90V1479H1497V926H1186L1126 1176H684V905H944V573H684V303H909V0Z" />
<glyph unicode="G" glyph-name="G" horiz-adv-x="1820" d="M1616 522V0H1241V158Q1056 -33 821 -33Q599 -33 431 63T175 331T86 725Q86 852 112 967T194 1182T329 1355T522 1469T770 1511Q885 1511 976 1481T1155 1378V1479H1550V961H1157Q1119 1041 1042 1083Q978
1120 877 1120Q795 1120 730 1089T624 1005T562 884T541 737Q541 574 628 471T874 367Q940 367 997 384T1096 440T1147 537H958V817H1753V522H1616Z" />
<glyph unicode="H" glyph-name="H" horiz-adv-x="1933" d="M846 0H92V303H248V1176H92V1479H846V1176H690V905H1243V1176H1087V1479H1841V1176H1686V303H1841V0H1087V303H1243V573H690V303H846V0Z" />
<glyph unicode="I" glyph-name="I" horiz-adv-x="909" d="M834 303V0H76V303H233V1176H76V1479H834V1176H676V303H834Z" />
<glyph unicode="J" glyph-name="J" horiz-adv-x="1024" d="M94 -414V-4Q149 -4 183 1T250 21T296 69T311 152V1176H137V1479H928V1176H754V41Q754 -53 736 -125T680 -247T595 -330T480 -381T342 -406T180 -414H94Z" />
<glyph unicode="K" glyph-name="K" horiz-adv-x="1933" d="M815 0H80V303H233V1176H80V1479H815V1176H676V803H700L1143 1176H1006V1479H1831V1176H1677L1198 770L1706 303H1864V0H1006V303H1165L692 733H676V303H815V0Z" />
<glyph unicode="L" glyph-name="L" horiz-adv-x="1478" d="M1403 0H72V303H223V1176H72V1479H817V1176H666V303H1053L1118 590H1403V0Z" />
<glyph unicode="M" glyph-name="M" horiz-adv-x="2048" d="M768 0H76V303H203V1176H76V1479H772L1022 864H1026L1276 1479H1972V1176H1845V303H1972V0H1280V303H1432V1014H1427L1128 303H920L621 1014H616V303H768V0Z" />
<glyph unicode="N" glyph-name="N" horiz-adv-x="1820" d="M90 1176V1479H666L1171 696V1176H999V1479H1733V1176H1585V0H1176L651 823V303H823V0H90V303H238V1176H90Z" />
<glyph unicode="O" glyph-name="O" horiz-adv-x="1705" d="M852 1085Q709 1085 619 983T528 739T618 495T852 393Q948 393 1024 442T1139 569T1178 739Q1178 881 1088 983T852 1085ZM852 -33Q693 -33 549 28T301 192T136 438T74 739T135 1040T300 1286T548 1450T852
1511Q1012 1511 1156 1450T1405 1286T1570 1040T1632 739T1571 438T1405 192T1157 28T852 -33Z" />
<glyph unicode="P" glyph-name="P" horiz-adv-x="1593" d="M844 0H76V303H227V1176H76V1479H952Q1257 1479 1396 1364T1536 1008T1397 653T952 537H670V303H844V0ZM670 1176V840H868Q970 840 1025 884T1081 1001Q1081 1089 1031 1132T868 1176H670Z" />
<glyph unicode="Q" glyph-name="Q" horiz-adv-x="1705" d="M727 555L993 709L1112 530Q1178 622 1178 739Q1178 881 1088 983T852 1085Q709 1085 619 983T528 739Q528 603 612 503T834 395L727 555ZM1632 -154H1202L1096 6Q979 -33 852 -33Q693 -33 549 28T301
192T136 438T74 739T135 1040T300 1286T548 1450T852 1511Q1012 1511 1156 1450T1405 1286T1570 1040T1632 739Q1632 565 1561 414T1362 158L1364 156H1632V-154Z" />
<glyph unicode="R" glyph-name="R" horiz-adv-x="1705" d="M72 1176V1479H1049Q1315 1479 1431 1392T1548 1094Q1548 942 1479 858T1262 748V743Q1278 739 1314 732T1371 721T1421 704T1467 677T1495 637T1507 578V303H1630V0H1065V379Q1065 426 1060 459T1039
525T992 573T911 590H664V303H811V0H72V303H221V1176H72ZM664 1176V893H924Q1000 893 1048 931T1096 1032Q1096 1103 1049 1139T924 1176H664Z" />
<glyph unicode="S" glyph-name="S" horiz-adv-x="1478" d="M1378 1063H1008Q953 1139 870 1182Q786 1225 670 1225Q598 1225 544 1199T489 1118Q489 1087 508 1064T557 1027T636 1001T730 983T842 966T956 946Q1034 930 1095 910T1220 853T1327 766T1396 639T1423
465Q1423 345 1381 250T1263 93T1086 -1T864 -33Q601 -33 471 119V0H104V465H481Q527 374 606 330Q682 287 786 287Q995 287 995 408Q995 435 982 456T942 492T885 518T808 538T722 553T624 568T524 586Q445 602 384 621T258 675T151 758T81 877T53 1042Q53 1133
91 1216T199 1366T379 1471T621 1511Q743 1511 833 1479T1010 1366V1479H1378V1063Z" />
<glyph unicode="T" glyph-name="T" horiz-adv-x="1593" d="M346 920H72V1479H1522V920H1247L1188 1176H1018V303H1190V0H403V303H575V1176H403L346 920Z" />
<glyph unicode="U" glyph-name="U" horiz-adv-x="1820" d="M88 1176V1479H827V1176H684V612Q684 542 693 495T725 410T795 353T911 334Q982 334 1028 352T1098 409T1131 495T1139 612V1176H995V1479H1735V1176H1581V606Q1581 427 1543 305T1420 108T1213 0T911
-33Q557 -33 400 106T242 575V1176H88Z" />
<glyph unicode="V" glyph-name="V" horiz-adv-x="1593" d="M72 1176V1479H709V1176H608L791 573H795L985 1176H885V1479H1522V1176H1434L995 0H596L160 1176H72Z" />
<glyph unicode="W" glyph-name="W" horiz-adv-x="2048" d="M35 1176V1479H629V1176H537L700 647H713L854 1176H762V1479H1296V1176H1204L1343 629H1358L1522 1176H1430V1479H2013V1176H1933L1548 0H1178L1030 596H1026L881 0H510L115 1176H35Z" />
<glyph unicode="X" glyph-name="X" horiz-adv-x="1705" d="M768 1176H674L854 930L1038 1176H944V1479H1610V1176H1501L1196 776L1526 303H1634V0H958V303H1067L870 604L649 303H758V0H72V303H172L526 745L203 1176H94V1479H768V1176Z" />
<glyph unicode="Y" glyph-name="Y" horiz-adv-x="1705" d="M1636 1176H1516L1092 539V303H1251V0H494V303H649V551L193 1176H72V1479H786V1176H668L868 825L1069 1176H952V1479H1636V1176Z" />
<glyph unicode="Z" glyph-name="Z" horiz-adv-x="1593" d="M1475 1204L664 303H1126L1190 582H1485V0H104V311L874 1176H483L432 944H133V1479H1475V1204Z" />
<glyph unicode="[" glyph-name="bracketleft" horiz-adv-x="909" d="M834 -256H141V1479H840V1251H498V-29H834V-256Z" />
<glyph unicode="\" glyph-name="backslash" horiz-adv-x="569" d="M393 -33L-6 1479H182L578 -33H393Z" />
<glyph unicode="]" glyph-name="bracketright" horiz-adv-x="909" d="M76 1479H768V-256H70V-29H412V1251H76V1479Z" />
<glyph unicode="^" glyph-name="asciicircum" horiz-adv-x="1228" d="M387 698H150L506 1446H723L1079 698H840L614 1206L387 698Z" />
<glyph unicode="_" glyph-name="underscore" horiz-adv-x="1024" d="M1024 -256H0V-154H1024V-256Z" />
<glyph unicode="`" glyph-name="grave" horiz-adv-x="681" d="M553 1157H274L-80 1460H350L553 1157Z" />
<glyph unicode="a" glyph-name="a" horiz-adv-x="1478" d="M694 303Q774 303 831 358T889 492Q889 570 831 626T694 682Q617 682 563 625T508 492Q508 412 561 358T694 303ZM1395 709H1280V291H1395V0H893V147H889Q816 55 737 11T545 -33Q436 -33 346 11T198 130T108
300T76 500Q76 615 106 711T195 879T346 991T557 1032Q662 1032 752 983T897 846H901V999H1395V709Z" />
<glyph unicode="b" glyph-name="b" horiz-adv-x="1478" d="M199 291V1188H76V1479H612V901Q674 961 752 996T913 1032Q1134 1032 1262 889T1391 524Q1391 408 1361 308T1272 132T1120 11T907 -33Q709 -33 582 119V0H76V291H199ZM582 506Q582 423 637 369T774 315Q853
315 908 371T963 506Q963 583 907 639T774 696Q695 696 639 641T582 506Z" />
<glyph unicode="c" glyph-name="c" horiz-adv-x="1251" d="M883 897V999H1147V602H823Q791 711 664 711Q579 711 534 653T489 508Q489 427 534 361T659 295Q779 295 811 377H1180Q1164 273 1113 193T984 64T815 -8T618 -33Q485 -33 381 10T212 128T114 302T80
516Q80 745 214 888T575 1032Q768 1032 883 897Z" />
<glyph unicode="d" glyph-name="d" horiz-adv-x="1478" d="M901 0V119Q754 -42 553 -33Q447 -33 359 11T212 130T122 300T90 498Q90 614 119 710T206 879T356 992T569 1032Q725 1032 879 903V1188H725V1479H1292V291H1405V0H901ZM707 322Q786 322 843 377T901
512T843 648T707 705T574 647T518 512Q518 432 572 377T707 322Z" />
<glyph unicode="e" glyph-name="e" horiz-adv-x="1366" d="M877 315L1235 244Q1195 151 1109 87T926 -5T723 -33Q605 -33 508 -13T341 45T220 130T139 239T95 361T80 492Q80 663 163 787T383 972T688 1032Q996 1032 1133 880T1270 418H508Q505 325 555 275T705
225Q822 225 877 315ZM502 582H874Q874 782 702 782Q605 782 554 725T502 582Z" />
<glyph unicode="f" glyph-name="f" horiz-adv-x="909" d="M754 0H109V291H219V709H109V999H219V1225Q219 1362 291 1420T524 1479H797V1188H741Q672 1188 653 1165T633 1071V999H754V709H633V291H754V0Z" />
<glyph unicode="g" glyph-name="g" horiz-adv-x="1478" d="M492 516Q492 440 544 383T672 326Q757 326 814 377T872 516Q872 594 818 651T686 709Q606 709 549 653T492 516ZM1395 709H1274V0Q1274 -197 1097 -311T612 -426Q379 -426 170 -342V-47Q368 -150 569
-150Q646 -150 704 -137T794 -103T845 -53T871 3T877 61V150Q747 31 547 31Q329 31 204 168T78 526Q78 752 205 892T557 1032Q662 1032 741 1000T879 893H883V999H1395V709Z" />
<glyph unicode="h" glyph-name="h" horiz-adv-x="1478" d="M66 1188V1479H590V885Q671 952 770 992T969 1032Q1070 1032 1138 1010T1240 945T1285 858T1298 750V291H1417V0H872V596Q872 679 835 709T739 739Q713 739 690 734T643 714T605 670T590 596V291H707V0H61V291H176V1188H66Z"
/>
<glyph unicode="i" glyph-name="i" horiz-adv-x="796" d="M721 291V0H76V291H190V709H76V999H604V291H721ZM604 1165H125V1479H604V1165Z" />
<glyph unicode="j" glyph-name="j" horiz-adv-x="796" d="M61 -408V-43H123Q229 -43 229 90V709H98V999H643V106Q643 28 639 -26T624 -139T591 -235T533 -308T445 -364T321 -396T154 -408H61ZM643 1165H164V1479H643V1165Z" />
<glyph unicode="k" glyph-name="k" horiz-adv-x="1478" d="M76 0V291H186V1188H80V1479H600V602Q600 589 600 583T605 570T618 563Q653 563 670 573L903 725V729H758V999H1380V709H1282L1030 555L1319 291H1417V0H758V270H883V276L680 457Q655 479 621 479Q607
479 604 459T600 399V0H76Z" />
<glyph unicode="l" glyph-name="l" horiz-adv-x="796" d="M66 1188V1479H604V291H721V0H66V291H190V1188H66Z" />
<glyph unicode="m" glyph-name="m" horiz-adv-x="2048" d="M537 999V870Q608 950 707 992T915 1032Q1103 1038 1214 893Q1364 1032 1569 1032Q1717 1032 1800 952T1884 709V291H1993V0H1470V608Q1470 669 1440 697T1348 725Q1290 725 1261 700T1231 602V291H1339V0H817V602Q817
668 789 695T700 723Q578 723 578 602V291H686V0H55V291H164V709H55V999H537Z" />
<glyph unicode="n" glyph-name="n" horiz-adv-x="1478" d="M590 999V885Q671 952 770 992T969 1032Q1070 1032 1138 1010T1240 945T1285 858T1298 750V291H1417V0H872V596Q872 679 835 709T739 739Q713 739 690 734T643 714T605 670T590 596V291H707V0H61V291H176V709H61V999H590Z"
/>
<glyph unicode="o" glyph-name="o" horiz-adv-x="1366" d="M842 -33T682 -33T385 36T166 228T84 500T166 772T385 963T682 1032T979 964T1198 772T1280 500T1198 228T979 36ZM758 688T682 688T550 635T494 500T550 365T682 311T814 364T870 500T814 635Z" />
<glyph unicode="p" glyph-name="p" horiz-adv-x="1478" d="M588 494Q588 414 640 359T770 303Q850 303 906 358T963 494Q963 571 906 625T770 680Q694 680 641 625T588 494ZM582 999V874Q582 869 593 882T631 920T695 970T793 1013T924 1032Q1071 1032 1180 965T1345
784T1401 524Q1401 408 1371 308T1282 132T1130 11T918 -33Q716 -33 598 119H594V-135H729V-426H76V-135H180V709H76V999H582Z" />
<glyph unicode="q" glyph-name="q" horiz-adv-x="1478" d="M510 494Q510 413 565 358T702 303Q779 303 832 360T885 494Q885 569 831 624T702 680Q623 680 567 626T510 494ZM1292 709V-135H1397V-426H743V-135H879V119H874Q757 -33 555 -33Q436 -33 343 11T191
131T102 308T72 524Q72 669 127 783T292 965T549 1032Q619 1032 680 1014T778 970T842 920T880 882T891 874V999H1397V709H1292Z" />
<glyph unicode="r" glyph-name="r" horiz-adv-x="1138" d="M596 999V907Q596 878 598 868T610 858Q635 858 643 879Q670 953 730 992T872 1032Q980 1032 1042 966T1104 793Q1104 681 1047 618T879 555Q778 555 718 598T641 739Q631 762 612 762Q592 762 592 731V291H725V0H57V291H178V709H61V999H596Z"
/>
<glyph unicode="s" glyph-name="s" horiz-adv-x="1024" d="M295 51V0H61V270H295Q331 213 360 193Q411 156 483 156Q554 156 583 177T612 250Q612 270 598 284T552 310T492 328T413 347T330 367Q283 380 246 395T170 435T106 492T64 570T47 674Q47 845 154 938T436
1032Q512 1032 588 1008T713 938V999H944V715H711Q690 774 643 807Q588 844 520 844Q466 844 438 817T410 752Q410 731 422 715T450 688T497 667T553 650T620 635T688 618Q747 603 791 583T878 528T944 439T967 311T945 180T885 82T793 16T678 -21T547 -33Q482
-33 412 -11T295 51Z" />
<glyph unicode="t" glyph-name="t" horiz-adv-x="796" d="M582 1444V999H721V709H582V406Q582 348 598 331T662 313H721V0H418Q168 0 168 238V709H51V999H168V1444H582Z" />
<glyph unicode="u" glyph-name="u" horiz-adv-x="1478" d="M889 0V125Q707 -33 483 -33Q176 -33 176 264V709H72V999H602V385Q602 323 634 296T735 268Q767 268 790 273T830 286T857 311T873 342T881 384T884 431T885 487V709H768V999H1298V291H1403V0H889Z" />
<glyph unicode="v" glyph-name="v" horiz-adv-x="1366" d="M47 709V999H612V729H524L692 387L868 729H786V999H1309V709H1245L862 0H479L115 709H47Z" />
<glyph unicode="w" glyph-name="w" horiz-adv-x="1933" d="M57 709V999H569V729H481L616 393L838 999H1096L1311 389L1448 729H1356V999H1872V709H1806L1503 0H1145L967 508H963L778 0H424L123 709H57Z" />
<glyph unicode="x" glyph-name="x" horiz-adv-x="1251" d="M57 709V999H512V834L623 737L737 838V999H1194V709H1116L883 502L1118 291H1194V0H741V180L629 281L506 180V0H51V291H113L367 512L143 709H57Z" />
<glyph unicode="y" glyph-name="y" horiz-adv-x="1366" d="M47 709V999H616V729H526L705 397L877 729H786V999H1313V709H1247L793 -135H958V-426H254V-135H420L500 16L111 709H47Z" />
<glyph unicode="z" glyph-name="z" horiz-adv-x="1251" d="M1133 778L592 246H899L938 375H1133V0H109V244L631 754H348L311 641H115V999H1133V778Z" />
<glyph unicode="{" glyph-name="braceleft" horiz-adv-x="681" d="M147 -29V342Q147 447 116 499T-8 580Q84 607 115 659T147 817V1188Q147 1261 171 1313T237 1397T345 1447T483 1472T653 1479V1417Q558 1407 531 1361T504 1198V848Q504 728 471 668T338 582V578Q438
552 471 492T504 311V-39Q504 -156 531 -202T653 -258V-319Q555 -319 484 -313T345 -288T237 -238T172 -154T147 -29Z" />
<glyph unicode="|" glyph-name="bar" horiz-adv-x="454" d="M104 -512V1536H350V-512H104Z" />
<glyph unicode="}" glyph-name="braceright" horiz-adv-x="681" d="M535 1188V817Q535 712 566 660T690 580Q598 552 567 500T535 342V-29Q535 -102 511 -154T445 -238T337 -288T199 -312T29 -319V-258Q124 -248 151 -202T178 -39V311Q178 431 211 491T344 578V582Q244
608 211 668T178 848V1198Q178 1315 151 1361T29 1417V1479Q127 1479 198 1473T337 1448T445 1398T510 1314T535 1188Z" />
<glyph unicode="~" glyph-name="asciitilde" horiz-adv-x="1228" d="M1014 707L1087 510Q1064 478 1049 458T1008 412T958 371T901 345T831 334Q748 334 623 401Q495 473 387 473Q283 473 215 326L141 522Q233 698 397 698Q480 698 625 633Q638 627 669 613T716
592T756 576T799 563T834 559Q863 559 888 570T937 607T976 652T1014 707Z" />
</font>
</defs>
</svg>
